<svg xmlns="http://www.w3.org/2000/svg" xmlns:xlink="http://www.w3.org/1999/xlink" fill="none" version="1.1" width="369" height="195.2380828857422" viewBox="0 0 369 195.2380828857422"><defs><clipPath id="master_svg0_2_5304"><rect x="0" y="0" width="369" height="195.2380828857422" rx="0"/></clipPath></defs><g clip-path="url(#master_svg0_2_5304)"><g><path d="M250.4320625,57.0159912109375L262.75206249999997,57.0159912109375L262.75206249999997,138.99999121093748L247.2960625,138.99999121093748L247.2960625,86.1359912109375L226.4640625,117.1599912109375L217.9520625,117.1599912109375L197.0080625,85.9119912109375L197.0080625,138.99999121093748L181.6640625,138.99999121093748L181.6640625,57.0159912109375L194.5440625,57.0159912109375L222.5440625,99.46399121093751L250.4320625,57.0159912109375Z" fill="#0B9541" fill-opacity="1"/></g><g><path d="M357,98C357,102.37780000000001,356.3298,106.5745,355.0892,110.5004Q355.0894,117,355,136.74259999999998L329.501,136.74259999999998C325.2661,138.20749999999998,320.7211,139,316,139C293.5,139,275,120.6437,275,98C275,75.3563,293.3563,57,316,57C338.6437,57,357,75,357,98ZM326.98,121.7426L340.0509,121.7426L340.0971,108.16210000000001L340.7863,105.981Q342,102.1399,342,98Q342,87.0512,334.4168,79.5135Q326.8579,72,316,72Q305.2304,72,297.6152,79.6152Q290,87.2304,290,98Q290,108.7342,297.6563,116.372Q305.3028,124,316,124Q320.454,124,324.59749999999997,122.5667L326.98,121.7426Z" fill-rule="evenodd" fill="#0B9541" fill-opacity="1"/></g><g><path d="M134.088,90.488L168.92000000000002,138.98399999999998L147.976,138.98399999999998L122.44,102.92L111.24,114.904L111.24,138.98399999999998L95,138.98399999999998L95,57L111.24,57L111.24,95.19200000000001L145.288,57L165.56,57L134.088,90.488Z" fill="#2B5DF6" fill-opacity="1"/></g><g><path d="M82.552,66.58437L82.552,138.98399999999998L66.2,138.98399999999998L66.2,103.70400000000001L29.24,103.70400000000001L29.24,138.98399999999998L13,138.98399999999998L13,57L29.24,57L29.24,89.256L66.2,89.256L66.01650000000001,67.0006Q66.8905,67.6073,67.84620000000001,68.075Q68.8018,68.5427,69.8172,68.8605Q70.8326,69.1784,71.8843,69.3392Q72.936,69.5,74,69.5Q74.5753,69.5,75.14869999999999,69.4528Q75.7221,69.40559999999999,76.28970000000001,69.3115Q76.8572,69.2174,77.4152,69.0771Q77.9731,68.9367,78.5177,68.7511Q79.0622,68.5654,79.5897,68.3357Q80.1172,68.106,80.624,67.8338Q81.1309,67.5616,81.6137,67.2487Q82.0965,66.93581,82.552,66.58437Z" fill-rule="evenodd" fill="#2B5DF6" fill-opacity="1"/></g><g><ellipse cx="74" cy="55" rx="12" ry="12" fill="#0B9541" fill-opacity="1"/></g></g></svg>