<svg xmlns="http://www.w3.org/2000/svg"
  xmlns:xlink="http://www.w3.org/1999/xlink" fill="none" version="1.1" width="369" height="200" viewBox="0 0 369 200">
  <defs>
    <clipPath id="master_svg0_2_4111">
      <rect x="0" y="0" width="369" height="200" rx="0"/>
    </clipPath>
  </defs>
  <g clip-path="url(#master_svg0_2_4111)">
    <g>
      <g>
        <path d="M288.135986328125,59.45599365234375L354.215986328125,59.45599365234375L354.215986328125,73.90399365234376L329.351986328125,73.90399365234376L329.351986328125,141.43999365234373L312.999986328125,141.43999365234373L312.999986328125,73.90399365234376L288.135986328125,73.90399365234376L288.135986328125,59.45599365234375Z" fill="#0B9541" fill-opacity="1"/>
      </g>
      <g>
        <path d="M194.2800390625,141.48399999999998L178.0400390625,141.48399999999998L178.0400390625,59.5L194.2800390625,59.5L194.2800390625,141.48399999999998Z" fill="#0B9541" fill-opacity="1"/>
      </g>
      <g>
        <path d="M136.264025390625,92.988L171.09602539062502,141.48399999999998L150.152025390625,141.48399999999998L124.616025390625,105.42L113.416025390625,117.404L113.416025390625,141.48399999999998L97.176025390625,141.48399999999998L97.176025390625,59.5L113.416025390625,59.5L113.416025390625,97.69200000000001L147.464025390625,59.5L167.736025390625,59.5L136.264025390625,92.988Z" fill="#2B5DF6" fill-opacity="1"/>
      </g>
      <g>
        <path d="M256.4057,79.1632C257.3122,79.1632,258.0471,78.4284,258.0471,77.5219C258.0471,76.6154,257.3122,75.8805,256.4057,75.8805C255.4992,75.8805,254.7644,76.6154,254.7644,77.5219C254.7644,78.4284,255.4992,79.1632,256.4057,79.1632ZM252.6952,76.3088C253.83859999999999,76.3096,254.766,75.3828,254.766,74.2394C254.766,73.0959,253.83859999999999,72.1692,252.6952,72.17C251.5529,72.1708,250.6273,73.097,250.6273,74.2394C250.6273,75.3817,251.5529,76.30799999999999,252.6952,76.3088ZM254.2255,81.673C253.1438,81.673,252.2669,82.5498,252.2669,83.6315C252.2669,84.7132,253.1438,85.5901,254.2255,85.5901C255.3072,85.5901,256.18399999999997,84.7132,256.18399999999997,83.6315C256.18399999999997,82.5498,255.3072,81.673,254.2255,81.673ZM247.5211,73.6622C248.7788,73.6622,249.79829999999998,72.6426,249.79829999999998,71.3849C249.79829999999998,70.1272,248.7788,69.1077,247.5211,69.1077C246.2634,69.1077,245.2439,70.1272,245.2439,71.3849C245.2439,72.6426,246.2634,73.6622,247.5211,73.6622ZM246.736,80.8048C246.736,82.0627,247.7558,83.0825,249.0137,83.0825C250.2716,83.0825,251.2914,82.0627,251.2914,80.8048C251.2914,79.5469,250.2716,78.5271,249.0137,78.5271C247.7558,78.5271,246.736,79.5469,246.736,80.8048ZM253.2473,93.4298C254.5061,93.4311,255.5272,92.411,255.5272,91.1522C255.5272,89.8934,254.5061,88.8733,253.2473,88.8745C251.99020000000002,88.8757,250.9718,89.8951,250.9718,91.1522C250.9718,92.4092,251.99020000000002,93.4286,253.2473,93.4298ZM240.8842,72.1696C242.3557,72.1884,243.5586,71.0008,243.5586,69.5292C243.5586,68.0577,242.3557,66.87008,240.8842,66.88892C239.4392,66.90742,238.2775,68.0841,238.2775,69.5292C238.2775,70.9744,239.4392,72.1511,240.8842,72.1696ZM249.16219999999998,89.2967C249.16219999999998,87.8386,247.9802,86.6566,246.5221,86.6566C245.064,86.6566,243.882,87.8386,243.882,89.2967C243.882,90.75489999999999,245.0641,91.937,246.5223,91.937C247.9805,91.937,249.1627,90.75489999999999,249.16219999999998,89.2967ZM239.7073,78.8839C239.7073,80.3421,240.8894,81.52420000000001,242.3476,81.52420000000001C243.8058,81.52420000000001,244.9879,80.3421,244.9879,78.8839C245.0068,77.4125,243.8192,76.2096,242.3476,76.2096C240.8761,76.2096,239.6884,77.4125,239.7073,78.8839ZM232.7491,72.1696C234.4404,72.1696,235.8114,70.7983,235.8114,69.10679999999999C235.8114,67.41533,234.44,66.0441,232.7483,66.0441C231.057,66.0441,229.686,67.41533,229.686,69.10679999999999C229.686,70.7983,231.0574,72.1696,232.7491,72.1696ZM231.1141,78.4202C231.0937,80.1257,232.4708,81.5192,234.1766,81.5192C235.8825,81.51910000000001,237.2595,80.1254,237.2391,78.4197C237.2192,76.7425,235.8539,75.3934,234.1766,75.3934C232.4993,75.3934,231.13400000000001,76.7425,231.1141,78.4202ZM238.4805,85.8122C236.7749,85.7919,235.38139999999999,87.169,235.38139999999999,88.8747C235.38139999999999,90.5804,236.7749,91.95750000000001,238.4805,91.93719999999999C240.1577,91.9173,241.5069,90.55199999999999,241.5069,88.8747C241.5069,87.1974,240.1577,85.8321,238.4805,85.8122ZM223.2578,74.239C225.20850000000002,74.2392,226.79,72.6575,226.79,70.7064C226.79,68.7557,225.2086,67.17428,223.2578,67.17427C221.307,67.17428,219.7255,68.7558,219.7255,70.7066C219.7255,72.6575,221.307,74.2389,223.2578,74.239ZM221.224,80.0994C221.22390000000001,82.0503,222.8055,83.632,224.7565,83.632C226.7075,83.632,228.2891,82.0504,228.2891,80.0994C228.2891,78.1484,226.7073,76.5669,224.7561,76.5669C222.8053,76.5671,221.224,78.1486,221.224,80.0994ZM225.4701,90.5897C225.4688,92.5416,227.0508,94.12469999999999,229.0027,94.12469999999999C230.9546,94.12469999999999,232.5366,92.5416,232.5352,90.5897C232.5352,88.6387,230.9536,87.05709999999999,229.0027,87.05709999999999C227.0517,87.05709999999999,225.4701,88.6387,225.4701,90.5897ZM214.3732,88.7675C216.6972,88.7675,218.5813,86.8839,218.5813,84.5595C218.5813,82.2355,216.6972,80.3514,214.3732,80.3514C212.04919,80.3514,210.16513,82.2355,210.16513,84.5595C210.16513,86.8835,212.04876,88.7675,214.3732,88.7675ZM218.5813,90.69659999999999C216.2568,90.69659999999999,214.3728,92.58070000000001,214.3728,94.90469999999999C214.3728,97.2287,216.2568,99.11359999999999,218.5808,99.11359999999999C220.9048,99.11359999999999,222.7897,97.2287,222.7897,94.90469999999999C222.7897,92.58070000000001,220.9053,90.69659999999999,218.5813,90.69659999999999ZM207.94765,97.87780000000001C205.21531,97.87780000000001,203,100.09309999999999,203,102.82589999999999C203,105.5591,205.21531,107.7744,207.94852,107.7744C210.68172,107.7744,212.89704,105.5591,212.89704,102.82589999999999C212.89704,100.0935,210.68172,97.87780000000001,207.94852,97.87780000000001M226.9788,102.967C226.5305,102.1789,225.528,101.9036,224.7401,102.3523C223.9522,102.801,223.6774,103.8036,224.1265,104.59129999999999C224.5752,105.3784,225.577,105.65299999999999,226.36430000000001,105.2046C227.1517,104.7562,227.4267,103.75460000000001,226.9788,102.967ZM223.5125,106.8304C222.49020000000002,107.38210000000001,222.122,108.6668,222.6969,109.6763C223.27179999999998,110.6857,224.56459999999998,111.0244,225.5606,110.42660000000001C226.525,109.8478,226.8507,108.6049,226.294,107.6275C225.7374,106.6502,224.5022,106.2962,223.5125,106.8304ZM232.9098,104.3514C233.8707,103.8263,234.2144,102.61529999999999,233.6726,101.6637C233.1308,100.71209999999999,231.914,100.3896,230.972,100.9479C230.053,101.4925,229.74,102.6733,230.2686,103.6018C230.7971,104.53020000000001,231.9723,104.8637,232.9098,104.3514ZM225.7447,116.51570000000001C226.8376,115.8931,227.2188,114.50229999999999,226.5962,113.4094C225.9736,112.31649999999999,224.5828,111.9353,223.4899,112.55789999999999C222.4192,113.19069999999999,222.0541,114.56530000000001,222.6696,115.646C223.2852,116.7267,224.6538,117.1138,225.7447,116.51570000000001ZM230.0848,109.7048C230.6967,110.8201,232.1035,111.21809999999999,233.209,110.58840000000001C234.3145,109.9588,234.6898,108.5457,234.0425,107.4505C233.4098,106.3798,232.0351,106.0147,230.9545,106.6302C229.8738,107.2458,229.48669999999998,108.6143,230.0848,109.7048ZM237.8319,97.7981C236.739,98.4207,236.3577,99.81139999999999,236.9804,100.90440000000001C237.603,101.99719999999999,238.9937,102.3785,240.0866,101.7559C241.1795,101.1332,241.5608,99.7425,240.9381,98.64959999999999C240.3155,97.5567,238.9248,97.1755,237.8319,97.7981ZM228.5844,119.9153C227.8626,118.6483,226.2504,118.2063,224.9834,118.928C223.7164,119.6498,223.2744,121.262,223.9961,122.529C224.7179,123.796,226.33010000000002,124.238,227.5971,123.5163C228.8641,122.7945,229.30610000000001,121.1823,228.5844,119.9153ZM241.9828,108.8335C243.2063,108.0918,243.6168,106.5107,242.9087,105.26740000000001C242.2005,104.02420000000001,240.6312,103.57079999999999,239.3691,104.2448C238.1313,104.9803,237.7106,106.57159999999999,238.42329999999998,107.8226C239.136,109.0737,240.7194,109.5233,241.9828,108.8335ZM235.00130000000001,117.6151C236.26839999999999,116.8931,236.7103,115.28059999999999,235.9883,114.0135C235.2663,112.7464,233.6538,112.30449999999999,232.3867,113.0264C231.1208,113.749,230.6798,115.3606,231.4014,116.6271C232.123,117.8935,233.7343,118.3358,235.00130000000001,117.6151ZM232.611,126.9843C231.7841,125.4929,229.8983,124.9641,228.41649999999998,125.8081C226.9348,126.6521,226.42770000000002,128.5439,227.2888,130.0159C228.1397,131.4556,229.9882,131.94639999999998,231.4414,131.1187C232.8945,130.2909,233.415,128.4505,232.611,126.9843ZM238.8516,125.3111C240.3364,124.481,240.8602,122.5999,240.0182,121.12180000000001C239.1761,119.6438,237.2909,119.1351,235.8197,119.9889C234.365,120.8331,233.8633,122.6925,234.6958,124.1539C235.5283,125.6153,237.3836,126.1319,238.8516,125.3111ZM245.8055,116.3966C247.3052,115.5738,247.8402,113.6819,246.9934,112.19550000000001C246.1467,110.7091,244.2466,110.2045,242.7739,111.07480000000001C241.338,111.9274,240.8496,113.7731,241.6761,115.2242C242.5026,116.6753,244.3393,117.1968,245.8055,116.3966ZM234.2894,132.8859C232.5942,133.8517,232.0029,136.00889999999998,232.9687,137.70409999999998C233.9345,139.39929999999998,236.0917,139.9906,237.7869,139.0248C239.4802,138.0581,240.0702,135.9023,239.105,134.2081C238.1397,132.5139,235.9844,131.9221,234.2894,132.8859ZM241.7091,126.9345C240.0138,127.9002,239.4223,130.0574,240.388,131.7527C241.3537,133.44799999999998,243.51080000000002,134.0395,245.2062,133.0738C246.9015,132.10809999999998,247.493,129.951,246.5273,128.2557C245.5616,126.5603,243.4044,125.9688,241.7091,126.9345ZM252.2193,124.1918C253.91570000000002,123.2265,254.5079,121.0685,253.5417,119.3726C252.5756,117.67660000000001,250.4173,117.0855,248.7218,118.05250000000001C247.0276,119.0188,246.437,121.1753,247.4024,122.87C248.3679,124.5648,250.5241,125.1564,252.2193,124.1918ZM250.3894,133.16219999999998C248.3702,134.3123,247.66570000000002,136.8822,248.8154,138.9014C249.9659,140.92090000000002,252.5354,141.6255,254.555,140.4749C256.5742,139.32479999999998,257.2787,136.7553,256.129,134.7357C254.9785,132.71609999999998,252.4086,132.012,250.3894,133.16219999999998ZM257.296,124.3853C255.2764,125.5354,254.5719,128.10500000000002,255.722,130.1246C256.8725,132.14409999999998,259.4416,132.84820000000002,261.4616,131.6981C263.4808,130.548,264.1853,127.9781,263.03520000000003,125.9589C261.8851,123.9393,259.3152,123.2348,257.296,124.3853ZM269.0754,129.0606C266.7007,130.4134,265.8723,133.4345,267.2251,135.8092C268.5778,138.18380000000002,271.59860000000003,139.0122,273.9741,137.65949999999998C276.3483,136.3067,277.1771,133.2851,275.82439999999997,130.9109C274.47159999999997,128.5367,271.44960000000003,127.7075,269.0754,129.0606ZM264.48969999999997,116.1502C263.7033,115.6994,262.70029999999997,115.97149999999999,262.2495,116.75800000000001C261.7987,117.5444,262.0708,118.54740000000001,262.8572,118.9982C263.6437,119.449,264.6467,119.1769,265.09749999999997,118.3904C265.5483,117.604,265.2762,116.601,264.48969999999997,116.1502ZM267.3376,117.7827C268.3309,118.3671,269.6102,118.0278,270.1832,117.0279C270.75620000000004,116.02799999999999,270.4022,114.7527,269.3958,114.19120000000001C268.4056,113.6388,267.1553,113.9859,266.5915,114.9697C266.0277,115.9534,266.3604,117.2077,267.3376,117.7827ZM260.431,110.9445C259.4926,110.40639999999999,258.2957,110.731,257.7576,111.6694C257.2195,112.6078,257.5441,113.8047,258.4825,114.3428C259.4198,114.8711,260.6078,114.54429999999999,261.1431,113.6109C261.6784,112.67750000000001,261.3604,111.4871,260.431,110.9445ZM272.2836,114.89359999999999C273.377,115.54509999999999,274.7922,115.174,275.4253,114.06989999999999C276.0585,112.9657,275.6637,111.5569,274.5491,110.9423C273.4606,110.3421,272.09180000000003,110.7256,271.4735,111.804C270.85519999999997,112.88239999999999,271.21569999999997,114.25739999999999,272.2836,114.89359999999999ZM265.6342,107.5522C264.54290000000003,106.9269,263.1513,107.30449999999999,262.526,108.39580000000001C261.9006,109.487,262.2783,110.8786,263.3695,111.50399999999999C264.4608,112.1293,265.8523,111.7517,266.4777,110.66040000000001C267.1031,109.5692,266.7254,108.1776,265.6342,107.5522ZM252.286,110.0321C253.3773,110.6575,254.7688,110.2798,255.3942,109.18860000000001C256.01959999999997,108.0974,255.6419,106.70580000000001,254.5507,106.0804C253.45940000000002,105.455,252.0678,105.8327,251.4425,106.9239C250.8171,108.0152,251.1948,109.4068,252.286,110.0321ZM279.6392,105.7916C278.3742,105.06649999999999,276.7608,105.5042,276.0357,106.7693C275.3106,108.0344,275.7483,109.64779999999999,277.0134,110.3729C278.2785,111.098,279.8919,110.6603,280.617,109.3951C281.3421,108.1301,280.9044,106.5167,279.6392,105.7916ZM256.0818,101.83080000000001C255.3567,103.096,255.7947,104.70949999999999,257.06,105.43430000000001C258.3251,106.1594,259.9385,105.7217,260.6636,104.45660000000001C261.3887,103.19149999999999,260.9509,101.5781,259.6858,100.85300000000001C258.4206,100.12780000000001,256.807,100.5656,256.0818,101.83080000000001ZM268.1699,106.9906C269.4367,107.73230000000001,271.06510000000003,107.2984,271.795,106.0249C272.5249,104.7513,272.076,103.1269,270.7957,102.4089C269.5333,101.71039999999999,267.944,102.1545,267.2265,103.4063C266.5091,104.658,266.9292,106.2539,268.1699,106.9906ZM284.2608,98.5771C282.79359999999997,97.7359,280.9222,98.24369999999999,280.08140000000003,99.71119999999999C279.23990000000003,101.17869999999999,279.74760000000003,103.0504,281.2152,103.8917C282.6829,104.733,284.5545,104.2251,285.39570000000003,102.75739999999999C286.2367,101.28970000000001,285.7287,99.418,284.2608,98.5771ZM272.42560000000003,100.49799999999999C273.8954,101.36449999999999,275.7898,100.863,276.6383,99.3827C277.4867,97.9024,276.962,96.0142,275.4715,95.184C274.0065,94.368,272.1578,94.8818,271.3239,96.3366C270.4901,97.79140000000001,270.98109999999997,99.6463,272.42560000000003,100.49799999999999ZM261.2152,99.0335C262.68240000000003,99.87440000000001,264.5534,99.3666,265.3943,97.8994C266.2357,96.4319,265.728,94.5601,264.2604,93.71889999999999C262.7928,92.8776,260.9211,93.38550000000001,260.08,94.8532C259.2389,96.3209,259.747,98.1926,261.2152,99.0335ZM287.8263,89.1391C286.1319,88.1512,283.95730000000003,88.7328,282.9821,90.4345C282.007,92.1362,282.6047,94.3064,284.3137,95.2688C286.0039,96.215,288.1408,95.6235,289.104,93.943C290.0672,92.2624,289.49739999999997,90.1197,287.8263,89.1391ZM275.4191,91.8982C277.11379999999997,92.8888,279.291,92.30799999999999,280.2671,90.6049C281.2432,88.90180000000001,280.64390000000003,86.7296,278.9326,85.768C277.2417,84.8181,275.1012,85.4087,274.13689999999997,87.0914C273.1725,88.774,273.74469999999997,90.9195,275.4191,91.8982ZM269.0277,89.0572C270.0219,87.36240000000001,269.442,85.18209999999999,267.7373,84.2051C266.0326,83.22800000000001,263.8582,83.8297,262.8984,85.5442C261.9521,87.2344,262.5434,89.3715,264.2241,90.3347C265.9047,91.298,268.0476,90.7281,269.0277,89.0572ZM276.3773,81.2582C278.3934,82.4134,280.9651,81.7159,282.12080000000003,79.6993C283.277,77.6832,282.5786,75.11189999999999,280.562,73.9562C278.5459,72.8,275.9742,73.4981,274.8185,75.5142C273.6628,77.5307,274.3608,80.102,276.3773,81.2582ZM269.4945,72.4627C267.478,71.3066,264.9063,72.0046,263.7506,74.0211C262.5944,76.0373,263.29290000000003,78.60849999999999,265.30899999999997,79.7642C267.32550000000003,80.9204,269.8972,80.2224,271.0529,78.2063C272.2087,76.1897,271.5107,73.6184,269.4945,72.4627ZM263.35609999999997,67.24226C265.7273,68.6019,268.751,67.78093,270.1098,65.40973C271.4687,63.03853,270.6485,60.01521,268.27729999999997,58.655968C265.9065,57.297161,262.8819,58.117295,261.524,60.4885C260.1643,62.85926,260.9849,65.88389,263.35609999999997,67.24226Z" fill="#0B9541" fill-opacity="1" style="mix-blend-mode:passthrough"/>
      </g>
      <g>
        <path d="M84.552,69.08437L84.552,141.48399999999998L68.2,141.48399999999998L68.2,106.20400000000001L31.24,106.20400000000001L31.24,141.48399999999998L15,141.48399999999998L15,59.5L31.24,59.5L31.24,91.756L68.2,91.756L68.01650000000001,69.5006Q68.8905,70.1073,69.84620000000001,70.575Q70.8018,71.0427,71.8172,71.3605Q72.8326,71.6784,73.8843,71.8392Q74.936,72,76,72Q76.5753,72,77.14869999999999,71.9528Q77.7221,71.90559999999999,78.28970000000001,71.8115Q78.8572,71.7174,79.4152,71.5771Q79.9731,71.4367,80.5177,71.2511Q81.0622,71.0654,81.5897,70.8357Q82.1172,70.606,82.624,70.3338Q83.1309,70.0616,83.6137,69.7487Q84.0965,69.43581,84.552,69.08437Z" fill-rule="evenodd" fill="#2B5DF6" fill-opacity="1"/>
      </g>
      <g>
        <ellipse cx="76" cy="58" rx="12" ry="12" fill="#0B9541" fill-opacity="1"/>
      </g>
    </g>
  </g>
</svg>
